# xmcd CD database file
#
# Track frame offsets:
#	150
#	16036
#	33289
#	50799
#	61951
#	79202
#	91513
#	105730
#	130109
#	143917
#	154371
#	172340
#	186423
#	200012
#	210692
#	217784
#	228050
#	240415
#	250805
#	266251
#	285914
#	297719
#	314670
#
# Disc length: 4402 seconds
#
# Revision: 2
# Processed by: cddbd v1.4b41PL1 Copyright (c) Steve Scherf et al.
# Submitted via: Feurio! 1.50.2ß - http://www.feurio.com
#
DISCID=4c113017
DTITLE=Various Artist - Mojo MIX
DYEAR=1900
DGENRE=
TTITLE0=john cameron - troublemaker
TTITLE1=hugh masekela - dyambo
TTITLE2=Mojo Compilations 6 - Track: 8
TTITLE3=edwin birdsong - pretty brown skin
TTITLE4=johnny almond music machine - solar level
TTITLE5=ronald mesq - balanca pema
TTITLE6=Bar-Kays - You Can't Sit Down
TTITLE7=David Shire - Track: 6
TTITLE8=edwin starr - easin in
TTITLE9=elis regina - zazueira
TTITLE10=Mojo Compilations 6 - Track: 12
TTITLE11=manu dibango - wouri
TTITLE12=lee evans - cinnamon and clove
TTITLE13=junior wells - sweet darling think it over
TTITLE14=the sisters love - give me your love
TTITLE15=galt macdermot - hair
TTITLE16=michael naura - take us down to the river
TTITLE17=Bar-Kays - Bar-Kay's Boogaloo
TTITLE18=shirley bassey - light my fire
TTITLE19=Mojo Compilations 6 - Track: 15
TTITLE20=Mojo Compilations 6 - Track: 4
TTITLE21=loe lee wilson - return of the prodigal son
TTITLE22=gotham - use it or lose it
EXTD=
EXTT0=
EXTT1=
EXTT2=
EXTT3=
EXTT4=
EXTT5=
EXTT6=
EXTT7=
EXTT8=
EXTT9=
EXTT10=
EXTT11=
EXTT12=
EXTT13=
EXTT14=
EXTT15=
EXTT16=
EXTT17=
EXTT18=
EXTT19=
EXTT20=
EXTT21=
EXTT22=
PLAYORDER=
